inDegrees=yes
name=ik_S55_A01_T02
DataType=double
version=3
OpenSimVersion=4.3-2021-08-27-4bc7ad9
endheader
time	pelvis_tilt	pelvis_list	pelvis_rotation	pelvis_tx	pelvis_ty	pelvis_tz	hip_flexion_r	hip_adduction_r	hip_rotation_r	knee_angle_r	knee_angle_r_beta	ankle_angle_r	subtalar_angle_r	mtp_angle_r	hip_flexion_l	hip_adduction_l	hip_rotation_l	knee_angle_l	knee_angle_l_beta	ankle_angle_l	subtalar_angle_l	mtp_angle_l	lumbar_extension	lumbar_bending	lumbar_rotation	arm_flex_r	arm_add_r	arm_rot_r	elbow_flex_r	pro_sup_r	wrist_flex_r	wrist_dev_r	arm_flex_l	arm_add_l	arm_rot_l	elbow_flex_l	pro_sup_l	wrist_flex_l	wrist_dev_l
33.47999999999963	-0.3132379595758168	-9.612265024345355	-89.28129212980687	0	0.9399999999999999	0	-10.63397519881932	2.1213307576574	-7.360288548933127	18.20693000183673	0.3177708752121882	0	0	0	16.08352669815736	-3.094097872088152	-1.803744766432687	9.085538463751874	0.1585725605090577	0	0	0	0	0	0	43.15343555454196	-43.15343555454196	4.980591003942867	84.72575461858979	85.01940926961743	0	0	43.15343555454196	-43.15343555454196	4.980591003942867	84.72575461858979	85.01940926961427	0	0
33.49999999999964	0.420651655172561	-10.46694257945449	-89.63284626283159	0	0.9399999999999999	0	-11.24555271977676	0.7858290093777647	-8.361353153354177	20.81856352138031	0.3633524789836713	0	0	0	14.9252395612243	-3.011018306704955	-3.118405609443708	8.984137334713619	0.1568027769421005	0	0	0	0	0	0	43.15417066012719	-43.15417066012719	4.980606497989759	84.72597354968215	85.01939377557115	0	0	43.15417066012719	-43.15417066012719	4.980606497989759	84.72597354968215	85.01939377556799	0	0
33.51999999999964	1.720570878553289	-10.73012260009418	-89.38255208305533	0	0.9399999999999999	0	-10.96034461210474	-0.9211470542982015	-9.247895269077354	23.84071170093806	0.4160989152001069	0	0	0	13.73816904259839	-0.5180864235939546	2.586721906743616	10.39163323441476	0.1813682146002052	0	0	0	0	0	0	43.15919016565219	-43.15919016565219	4.980699996271261	84.72729467754581	85.0193002772931	0	0	43.15919016565219	-43.15919016565219	4.980699996271261	84.72729467754581	85.01930027728996	0	0
33.53999999999964	2.825121647819703	-10.32586423902681	-88.71223402331367	0	0.9399999999999999	0	-9.553697067075326	-2.508021332963655	-10.25368421621887	27.39233149795468	0.4780863744370594	0	0	0	13.63210735689946	1.108552774744585	2.981079656149261	11.39306410325506	0.198846480492576	0	0	0	0	0	0	43.16002800696798	-43.16002800696798	4.980717504649856	84.7275420711069	85.01928276891513	0	0	43.16002800696798	-43.16002800696798	4.980717504649856	84.7275420711069	85.01928276891199	0	0
33.55999999999965	3.185053632466985	-9.965511361663367	-88.19866022235277	0	0.9399999999999999	0	-9.361740023616772	-3.126646390432258	-10.78372270766762	29.73823094365867	0.519030043685304	0	0	0	13.27387160357135	1.184468060842598	0.03484908049879468	11.50139433201041	0.2007371996637956	0	0	0	0	0	0	43.16611281966273	-43.16611281966273	4.980827837329331	84.72910106736643	85.01917243623974	0	0	43.16611281966273	-43.16611281966273	4.980827837329331	84.72910106736643	85.01917243623663	0	0
33.57999999999965	3.175460675303871	-10.04645920561385	-88.08776482586002	0	0.9399999999999999	0	-5.768811936626561	-4.559684459500732	-11.52252307552853	35.95552411000762	0.6275422799998367	0	0	0	11.97205131833768	0.8248813349565394	-1.679055136746134	13.24604364535058	0.2311870744742398	0	0	0	0	0	0	43.19270751995006	-43.19270751995006	4.981299427602444	84.73576461456206	85.01870084598391	0	0	43.19270751995006	-43.19270751995006	4.981299427602444	84.73576461456206	85.01870084598087	0	0
33.59999999999965	3.198676082474534	-10.10749128821242	-88.12186789540077	0	0.9399999999999999	0	-3.462890304411861	-5.249234855143215	-10.44440461448565	41.15755560701704	0.7183348574151007	0	0	0	10.7270170097877	0.8771803368876706	-2.270945499138975	13.32277554488771	0.2325262987624722	0	0	0	0	0	0	43.2094968739463	-43.2094968739463	4.981595638637131	84.73995006120411	85.01840463496006	0	0	43.2094968739463	-43.2094968739463	4.981595638637131	84.73995006120411	85.01840463495709	0	0
33.61999999999966	3.875307548036553	-10.21496511580693	-88.22246024193947	0	0.9399999999999999	0	-1.135793189219051	-6.325533884244018	-8.839908912992712	46.1581925262333	0.8056124363522101	0	0	0	9.504824707199845	1.725226157048206	-2.708818180532355	12.96914455123902	0.2263542735862033	0	0	0	0	0	0	43.22524618383142	-43.22524618383142	4.981871300432998	84.743845147331	85.01812897317429	0	0	43.22524618383142	-43.22524618383142	4.981871300432998	84.743845147331	85.0181289731714	0	0
33.63999999999966	4.275793782611262	-10.24463017956323	-88.17249590423728	0	0.9399999999999999	0	1.058694935926545	-6.930563925717392	-8.180419558740436	50.36046514397086	0.8789559295981316	0	0	0	9.478724362583339	2.198996453397484	-2.770053657914874	13.92587831456905	0.2430524278213085	0	0	0	0	0	0	43.24642289390108	-43.24642289390108	4.982239029140385	84.74904113280763	85.01776124448031	0	0	43.24642289390108	-43.24642289390108	4.982239029140385	84.74904113280763	85.01776124447751	0	0
33.65999999999966	5.245404223219992	-10.53313323157616	-87.66877569837042	0	0.9399999999999999	0	2.500086605955403	-8.171757385540788	-9.211895621878313	52.95315445919442	0.9242068946300599	0	0	0	8.127816095923924	3.620466974825006	-1.921605906577764	13.70002782686183	0.2391105931935825	0	0	0	0	0	0	43.25035932747367	-43.25035932747367	4.982308719744622	84.75002585746209	85.01769155387866	0	0	43.25035932747367	-43.25035932747367	4.982308719744622	84.75002585746209	85.01769155387582	0	0
33.67999999999967	5.380759427685425	-10.59335483390222	-87.46968095697248	0	0.9399999999999999	0	3.872121669622545	-8.756268204462842	-10.7139919666264	53.78182792562438	0.9386699750431774	0	0	0	6.991728704797672	4.306187081136314	-0.6658654155954143	13.19991823666329	0.2303820342238185	0	0	0	0	0	0	43.25213642614196	-43.25213642614196	4.982341490781029	84.75048891093658	85.01765878284348	0	0	43.25213642614196	-43.25213642614196	4.982341490781029	84.75048891093658	85.01765878284064	0	0
33.69999999999967	5.266266705883272	-10.57280364862239	-87.13452035878915	0	0.9399999999999999	0	5.416527729988972	-8.815940043315997	-11.48285149695823	54.07809291716514	0.9438407746039568	0	0	0	5.958112035214854	4.675605946676535	0.6190676038303879	12.69797019681136	0.2216213882544707	0	0	0	0	0	0	43.25398191533406	-43.25398191533406	4.982374714435978	84.7509583596169	85.01762555918974	0	0	43.25398191533406	-43.25398191533406	4.982374714435978	84.7509583596169	85.01762555918692	0	0
33.71999999999967	5.136467612566806	-10.47749565316935	-87.13878188128363	0	0.9399999999999999	0	7.224201603448691	-8.612049483170839	-10.49581752966346	54.17638541994958	0.945556302407571	0	0	0	5.068212357092841	4.842314040936672	0.7871252906539099	11.71593417121899	0.2044816262346845	0	0	0	0	0	0	43.25598964915093	-43.25598964915093	4.982410521435986	84.75146431074411	85.01758975219103	0	0	43.25598964915093	-43.25598964915093	4.982410521435986	84.75146431074411	85.01758975218819	0	0
33.73999999999968	4.856218191501155	-10.30569739151301	-87.22437342860019	0	0.9399999999999999	0	9.215438397935319	-8.152416908491203	-8.626529200092673	53.87449943156535	0.9402873979446289	0	0	0	4.27543068603285	4.682302903613845	0.1674307799453963	11.77495803574573	0.2055117870079272	0	0	0	0	0	0	43.26040865927897	-43.26040865927897	4.982487503823874	84.75255206754181	85.01751276980593	0	0	43.26040865927897	-43.26040865927897	4.982487503823874	84.75255206754181	85.0175127698031	0	0
33.75999999999968	4.553283082770497	-10.14906957840556	-87.30760600549783	0	0.9399999999999999	0	11.00073269250995	-7.666281959985028	-7.262391714515464	52.39679954707065	0.9144966696038564	0	0	0	3.491076244435109	4.529192327352819	-0.1752380941622484	10.83896194292074	0.1891755734023286	0	0	0	0	0	0	43.26333720118109	-43.26333720118109	4.982539331386153	84.75328438831346	85.01746094224548	0	0	43.26333720118109	-43.26333720118109	4.982539331386153	84.75328438831346	85.01746094224271	0	0
33.77999999999968	4.386324292831351	-10.16306603024317	-87.26951925899874	0	0.9399999999999999	0	12.29076637155492	-7.323984768999373	-6.236273357505389	51.91841661351771	0.9061473123280084	0	0	0	2.515756213052184	4.541344456402844	-0.07307679180676357	11.41687156967051	0.1992619991680835	0	0	0	0	0	0	43.2638084818681	-43.2638084818681	4.982548851581141	84.75341890854016	85.01745142205081	0	0	43.2638084818681	-43.2638084818681	4.982548851581141	84.75341890854016	85.01745142204804	0	0
33.79999999999968	4.277305702263912	-10.3269106179302	-87.22280601033349	0	0.9399999999999999	0	13.23776185891916	-6.826323915442956	-5.794750785370818	47.12871115825806	0.8225511819329935	0	0	0	1.363875896687536	4.639296154983361	0.1502678607436151	10.52407904302213	0.1836798300408702	0	0	0	0	0	0	43.26984734723135	-43.26984734723135	4.98265293073947	84.75488954074794	85.01734734289631	0	0	43.26984734723135	-43.26984734723135	4.98265293073947	84.75488954074794	85.01734734289349	0	0
33.81999999999969	4.227943885962754	-10.57781894372893	-87.21740495245933	0	0.9399999999999999	0	13.93378188027598	-6.395987120649654	-5.476535693244969	45.92156228925363	0.8014824596071405	0	0	0	0.1510532194188955	4.692715679608999	-0.007122983381052194	11.00550940895127	0.1920823750454148	0	0	0	0	0	0	43.27034921652269	-43.27034921652269	4.982663023597509	84.75503215267595	85.01733725003865	0	0	43.27034921652269	-43.27034921652269	4.982663023597509	84.75503215267595	85.01733725003582	0	0
33.83999999999969	4.181402893977172	-10.81969575613848	-87.28475329946441	0	0.9399999999999999	0	14.42049912406655	-6.238516594647733	-5.17952404139087	46.57407687802666	0.8128709875985266	0	0	0	-1.020629825103515	4.769944237900917	0.04203638040703254	10.13965396583183	0.176970346716666	0	0	0	0	0	0	43.27084999429634	-43.27084999429634	4.982673047313381	84.75517378761256	85.01732722632313	0	0	43.27084999429634	-43.27084999429634	4.982673047313381	84.75517378761256	85.0173272263203	0	0
33.85999999999969	4.218050958420171	-10.90592460173691	-87.36765747778266	0	0.9399999999999999	0	14.8935290506845	-5.741620433776715	-5.568756085368787	40.34986773392132	0.7042380447011504	0	0	0	-2.041946450853267	4.962080970671022	0.1518254295704685	10.56885867629679	0.1844613820793486	0	0	0	0	0	0	43.28273610121359	-43.28273610121359	4.982874340773194	84.75801805090127	85.01712593287067	0	0	43.28273610121359	-43.28273610121359	4.982874340773194	84.75801805090127	85.01712593286777	0	0
33.8799999999997	4.286892053134224	-10.87811751945407	-87.55972035306202	0	0.9399999999999999	0	15.20606381334127	-5.16209584342096	-6.049272558204656	33.60831049057357	0.5865756740930594	0	0	0	-2.973541955518415	5.189614253306685	0.2786551469704103	9.500372978925459	0.1658127886497511	0	0	0	0	0	0	43.28512951168294	-43.28512951168294	4.982917286531675	84.75862487231645	85.01708298711377	0	0	43.28512951168294	-43.28512951168294	4.982917286531675	84.75862487231645	85.01708298711084	0	0
33.8999999999997	4.491842181817689	-10.63478062864963	-87.7034182764542	0	0.9399999999999999	0	15.47626999896917	-4.828467648914072	-6.314969455326347	28.82002533074537	0.5030043325296745	0	0	0	-3.736213009618016	5.613667156740812	0.4291906035089695	8.561717170209159	0.1494301542446816	0	0	0	0	0	0	43.28582588865742	-43.28582588865742	4.982931173878645	84.75882110025779	85.01706909976728	0	0	43.28582588865742	-43.28582588865742	4.982931173878645	84.75882110025779	85.01706909976436	0	0
33.9199999999997	4.72253123379679	-10.2043540226565	-87.81431728301995	0	0.9399999999999999	0	15.78512503498865	-4.413213157061673	-6.647276914075695	23.85742083917229	0.416390544677465	0	0	0	-4.347919227434552	6.057456852654609	0.566585035720646	9.340475233854702	0.1630220465317519	0	0	0	0	0	0	43.28653590322016	-43.28653590322016	4.982945341599207	84.75902128987344	85.01705493204736	0	0	43.28653590322016	-43.28653590322016	4.982945341599207	84.75902128987344	85.01705493204443	0	0
33.93999999999971	4.978125871818245	-9.757995667260506	-87.86281488821345	0	0.9399999999999999	0	15.98977396528219	-3.979351646963606	-6.937061004566469	19.03562096057885	0.3322342609237467	0	0	0	-4.959345466083394	6.592523467728244	1.028806719680655	8.219211263445644	0.1434522984641295	0	0	0	0	0	0	43.28743507494737	-43.28743507494737	4.982963298808759	84.75927502489618	85.0170369748385	0	0	43.28743507494737	-43.28743507494737	4.982963298808759	84.75927502489618	85.01703697483559	0	0
